<?xml version="1.0" standalone="no"?>
<!DOCTYPE svg PUBLIC "-//W3C//DTD SVG 20010904//EN"
 "http://www.w3.org/TR/2001/REC-SVG-20010904/DTD/svg10.dtd">
<svg version="1.0" xmlns="http://www.w3.org/2000/svg"
 width="105.000000pt" height="105.000000pt" viewBox="0 0 105.000000 105.000000"
 preserveAspectRatio="xMidYMid meet">
<metadata>
Created by potrace 1.14, written by Peter Selinger 2001-2017
</metadata>
<g transform="translate(0.000000,105.000000) scale(0.100000,-0.100000)"
fill="#000000" stroke="none">
<path d="M413 1016 c-177 -45 -321 -188 -368 -366 -24 -89 -2 -322 32 -343 9
-5 13 -35 13 -92 l0 -85 -45 0 c-33 0 -45 -4 -45 -15 0 -13 22 -15 134 -15
115 0 140 -3 182 -22 143 -63 285 -63 428 0 41 19 67 22 177 22 108 0 129 2
129 15 0 11 -12 15 -45 15 l-45 0 0 73 c0 49 5 80 15 94 23 32 55 168 55 229
0 212 -136 404 -337 476 -72 26 -208 33 -280 14z m-238 -834 l49 -52 -52 0
-52 0 0 57 c0 31 1 54 3 52 1 -2 24 -28 52 -57z m755 -7 c0 -33 -4 -45 -15
-45 -19 0 -21 60 -3 78 17 17 18 16 18 -33z m-60 -30 c0 -8 -7 -15 -16 -15
-14 0 -14 3 -4 15 7 8 14 15 16 15 2 0 4 -7 4 -15z"/>
</g>
</svg>
